<mxfile host="app.diagrams.net" modified="2023-08-06T16:01:08.949Z" agent="Mozilla/5.0 (Windows NT 10.0; Win64; x64) AppleWebKit/537.36 (KHTML, like Gecko) Chrome/115.0.0.0 Safari/537.36" etag="ccSBKkjcEOEJYYZW_ryp" version="21.6.6" type="google">
  <diagram name="Page-1" id="b2RKT6YwCRd6gPfBDniR">
    <mxGraphModel grid="1" page="1" gridSize="10" guides="1" tooltips="1" connect="1" arrows="1" fold="1" pageScale="1" pageWidth="850" pageHeight="1100" math="0" shadow="0">
      <root>
        <mxCell id="0" />
        <mxCell id="1" parent="0" />
        <mxCell id="yNZ2ZwaDBl664DxS9CAM-9" style="edgeStyle=orthogonalEdgeStyle;rounded=0;orthogonalLoop=1;jettySize=auto;html=1;exitX=0;exitY=0;exitDx=0;exitDy=30;exitPerimeter=0;" edge="1" parent="1" source="yNZ2ZwaDBl664DxS9CAM-1">
          <mxGeometry relative="1" as="geometry">
            <mxPoint x="80" y="200" as="targetPoint" />
          </mxGeometry>
        </mxCell>
        <mxCell id="yNZ2ZwaDBl664DxS9CAM-11" style="edgeStyle=orthogonalEdgeStyle;rounded=0;orthogonalLoop=1;jettySize=auto;html=1;exitX=0;exitY=0;exitDx=0;exitDy=60;exitPerimeter=0;" edge="1" parent="1" source="yNZ2ZwaDBl664DxS9CAM-1" target="yNZ2ZwaDBl664DxS9CAM-6">
          <mxGeometry relative="1" as="geometry" />
        </mxCell>
        <mxCell id="yNZ2ZwaDBl664DxS9CAM-13" style="edgeStyle=orthogonalEdgeStyle;rounded=0;orthogonalLoop=1;jettySize=auto;html=1;exitX=0;exitY=0;exitDx=70;exitDy=80;exitPerimeter=0;entryX=0.45;entryY=-0.033;entryDx=0;entryDy=0;entryPerimeter=0;" edge="1" parent="1" source="yNZ2ZwaDBl664DxS9CAM-1" target="yNZ2ZwaDBl664DxS9CAM-7">
          <mxGeometry relative="1" as="geometry" />
        </mxCell>
        <mxCell id="yNZ2ZwaDBl664DxS9CAM-15" style="edgeStyle=orthogonalEdgeStyle;rounded=0;orthogonalLoop=1;jettySize=auto;html=1;exitX=0;exitY=0;exitDx=120;exitDy=50;exitPerimeter=0;entryX=0.5;entryY=0;entryDx=0;entryDy=0;" edge="1" parent="1" source="yNZ2ZwaDBl664DxS9CAM-1" target="yNZ2ZwaDBl664DxS9CAM-8">
          <mxGeometry relative="1" as="geometry" />
        </mxCell>
        <mxCell id="yNZ2ZwaDBl664DxS9CAM-1" value="Supervisor" style="shape=cube;whiteSpace=wrap;html=1;boundedLbl=1;backgroundOutline=1;darkOpacity=0.05;darkOpacity2=0.1;" vertex="1" parent="1">
          <mxGeometry x="360" y="20" width="120" height="80" as="geometry" />
        </mxCell>
        <mxCell id="yNZ2ZwaDBl664DxS9CAM-27" style="edgeStyle=orthogonalEdgeStyle;rounded=0;orthogonalLoop=1;jettySize=auto;html=1;exitX=1;exitY=0.5;exitDx=0;exitDy=0;entryX=0.5;entryY=1;entryDx=0;entryDy=0;" edge="1" parent="1" source="yNZ2ZwaDBl664DxS9CAM-2" target="yNZ2ZwaDBl664DxS9CAM-8">
          <mxGeometry relative="1" as="geometry" />
        </mxCell>
        <mxCell id="yNZ2ZwaDBl664DxS9CAM-2" value="&amp;nbsp; &amp;nbsp; &amp;nbsp; &amp;nbsp; &amp;nbsp; MSAccess: Stock Orders" style="html=1;dashed=0;whiteSpace=wrap;shape=mxgraph.dfd.dataStoreID;align=center;spacingLeft=3;points=[[0,0],[0.5,0],[1,0],[0,0.5],[1,0.5],[0,1],[0.5,1],[1,1]];" vertex="1" parent="1">
          <mxGeometry x="335" y="490" width="170" height="30" as="geometry" />
        </mxCell>
        <mxCell id="yNZ2ZwaDBl664DxS9CAM-10" style="edgeStyle=orthogonalEdgeStyle;rounded=0;orthogonalLoop=1;jettySize=auto;html=1;exitX=0.25;exitY=1;exitDx=0;exitDy=0;entryX=0;entryY=1;entryDx=0;entryDy=0;" edge="1" parent="1" source="yNZ2ZwaDBl664DxS9CAM-5" target="yNZ2ZwaDBl664DxS9CAM-2">
          <mxGeometry relative="1" as="geometry" />
        </mxCell>
        <mxCell id="yNZ2ZwaDBl664DxS9CAM-5" value="&lt;p style=&quot;margin:0px;margin-top:4px;text-align:center;&quot;&gt;&lt;b&gt;5.1&lt;/b&gt;&lt;/p&gt;&lt;hr size=&quot;1&quot;&gt;&lt;p style=&quot;text-align: center; margin: 0px 0px 0px 4px;&quot;&gt;Maintain Stock Order&lt;/p&gt;&lt;hr size=&quot;1&quot;&gt;&lt;p style=&quot;text-align: center; margin: 0px 0px 0px 4px;&quot;&gt;C#&lt;/p&gt;" style="verticalAlign=top;align=left;overflow=fill;fontSize=12;fontFamily=Helvetica;html=1;whiteSpace=wrap;rounded=1;" vertex="1" parent="1">
          <mxGeometry x="30" y="210" width="160" height="90" as="geometry" />
        </mxCell>
        <mxCell id="yNZ2ZwaDBl664DxS9CAM-29" style="edgeStyle=orthogonalEdgeStyle;rounded=0;orthogonalLoop=1;jettySize=auto;html=1;exitX=0;exitY=1;exitDx=0;exitDy=0;entryX=0;entryY=0;entryDx=0;entryDy=0;" edge="1" parent="1" source="yNZ2ZwaDBl664DxS9CAM-6" target="yNZ2ZwaDBl664DxS9CAM-2">
          <mxGeometry relative="1" as="geometry" />
        </mxCell>
        <mxCell id="yNZ2ZwaDBl664DxS9CAM-6" value="&lt;p style=&quot;margin:0px;margin-top:4px;text-align:center;&quot;&gt;&lt;b&gt;5.2&lt;/b&gt;&lt;/p&gt;&lt;hr size=&quot;1&quot;&gt;&lt;p style=&quot;text-align: center; margin: 0px 0px 0px 4px;&quot;&gt;Maintain Stock Order&lt;/p&gt;&lt;hr size=&quot;1&quot;&gt;&lt;p style=&quot;text-align: center; margin: 0px 0px 0px 4px;&quot;&gt;C#&lt;/p&gt;" style="verticalAlign=top;align=left;overflow=fill;fontSize=12;fontFamily=Helvetica;html=1;whiteSpace=wrap;rounded=1;" vertex="1" parent="1">
          <mxGeometry x="260" y="210" width="160" height="90" as="geometry" />
        </mxCell>
        <mxCell id="yNZ2ZwaDBl664DxS9CAM-14" style="edgeStyle=orthogonalEdgeStyle;rounded=0;orthogonalLoop=1;jettySize=auto;html=1;exitX=0.25;exitY=1;exitDx=0;exitDy=0;entryX=0.829;entryY=-0.2;entryDx=0;entryDy=0;entryPerimeter=0;" edge="1" parent="1" source="yNZ2ZwaDBl664DxS9CAM-7" target="yNZ2ZwaDBl664DxS9CAM-2">
          <mxGeometry relative="1" as="geometry" />
        </mxCell>
        <mxCell id="yNZ2ZwaDBl664DxS9CAM-7" value="&lt;p style=&quot;margin:0px;margin-top:4px;text-align:center;&quot;&gt;&lt;b&gt;5.3&lt;/b&gt;&lt;/p&gt;&lt;hr size=&quot;1&quot;&gt;&lt;p style=&quot;text-align: center; margin: 0px 0px 0px 4px;&quot;&gt;Maintain Stock Order&lt;/p&gt;&lt;hr size=&quot;1&quot;&gt;&lt;p style=&quot;text-align: center; margin: 0px 0px 0px 4px;&quot;&gt;C#&lt;/p&gt;" style="verticalAlign=top;align=left;overflow=fill;fontSize=12;fontFamily=Helvetica;html=1;whiteSpace=wrap;rounded=1;" vertex="1" parent="1">
          <mxGeometry x="460" y="210" width="160" height="90" as="geometry" />
        </mxCell>
        <mxCell id="yNZ2ZwaDBl664DxS9CAM-8" value="&lt;p style=&quot;margin:0px;margin-top:4px;text-align:center;&quot;&gt;&lt;b&gt;5.4&lt;/b&gt;&lt;/p&gt;&lt;hr size=&quot;1&quot;&gt;&lt;p style=&quot;text-align: center; margin: 0px 0px 0px 4px;&quot;&gt;Maintain Stock Order&lt;/p&gt;&lt;hr size=&quot;1&quot;&gt;&lt;p style=&quot;text-align: center; margin: 0px 0px 0px 4px;&quot;&gt;C#&lt;/p&gt;" style="verticalAlign=top;align=left;overflow=fill;fontSize=12;fontFamily=Helvetica;html=1;whiteSpace=wrap;rounded=1;" vertex="1" parent="1">
          <mxGeometry x="650" y="210" width="160" height="90" as="geometry" />
        </mxCell>
        <mxCell id="yNZ2ZwaDBl664DxS9CAM-17" value="Windows 10 GUI:&lt;br&gt;Delete StockOrder Form" style="text;html=1;align=center;verticalAlign=middle;resizable=0;points=[];autosize=1;strokeColor=none;fillColor=none;" vertex="1" parent="1">
          <mxGeometry x="80" y="80" width="150" height="40" as="geometry" />
        </mxCell>
        <mxCell id="yNZ2ZwaDBl664DxS9CAM-18" value="Windows 10 GUI:&lt;br&gt;Add StockOrder Form" style="text;html=1;align=center;verticalAlign=middle;resizable=0;points=[];autosize=1;strokeColor=none;fillColor=none;" vertex="1" parent="1">
          <mxGeometry x="195" y="130" width="140" height="40" as="geometry" />
        </mxCell>
        <mxCell id="yNZ2ZwaDBl664DxS9CAM-19" value="Windows 10 GUI:&lt;br&gt;Update StockOrder Form" style="text;html=1;align=center;verticalAlign=middle;resizable=0;points=[];autosize=1;strokeColor=none;fillColor=none;" vertex="1" parent="1">
          <mxGeometry x="485" y="110" width="160" height="40" as="geometry" />
        </mxCell>
        <mxCell id="yNZ2ZwaDBl664DxS9CAM-20" value="Windows 10 GUI:&lt;br&gt;View StockOrder Form" style="text;html=1;align=center;verticalAlign=middle;resizable=0;points=[];autosize=1;strokeColor=none;fillColor=none;" vertex="1" parent="1">
          <mxGeometry x="735" y="90" width="140" height="40" as="geometry" />
        </mxCell>
        <mxCell id="yNZ2ZwaDBl664DxS9CAM-22" value="SQL DELETE ORDERS" style="text;html=1;align=center;verticalAlign=middle;resizable=0;points=[];autosize=1;strokeColor=none;fillColor=none;" vertex="1" parent="1">
          <mxGeometry x="70" y="450" width="150" height="30" as="geometry" />
        </mxCell>
        <mxCell id="yNZ2ZwaDBl664DxS9CAM-24" value="SQL INSERT ORDERS" style="text;html=1;align=center;verticalAlign=middle;resizable=0;points=[];autosize=1;strokeColor=none;fillColor=none;" vertex="1" parent="1">
          <mxGeometry x="270" y="350" width="150" height="30" as="geometry" />
        </mxCell>
        <mxCell id="yNZ2ZwaDBl664DxS9CAM-25" value="SQL UPDATE ORDERS" style="text;html=1;align=center;verticalAlign=middle;resizable=0;points=[];autosize=1;strokeColor=none;fillColor=none;" vertex="1" parent="1">
          <mxGeometry x="510" y="350" width="150" height="30" as="geometry" />
        </mxCell>
        <mxCell id="yNZ2ZwaDBl664DxS9CAM-26" value="SQL SELECT ORDERS" style="text;html=1;align=center;verticalAlign=middle;resizable=0;points=[];autosize=1;strokeColor=none;fillColor=none;" vertex="1" parent="1">
          <mxGeometry x="720" y="400" width="150" height="30" as="geometry" />
        </mxCell>
      </root>
    </mxGraphModel>
  </diagram>
</mxfile>
